<?xml version="1.0" encoding="iso-8859-1"?>
<!-- Generator: Adobe Illustrator 19.0.1, SVG Export Plug-In . SVG Version: 6.00 Build 0)  -->
<svg version="1.1" xmlns="http://www.w3.org/2000/svg" xmlns:xlink="http://www.w3.org/1999/xlink" x="0px" y="0px"
	 viewBox="0 0 128 128" style="enable-background:new 0 0 128 128;" xml:space="preserve">
<g id="_x31_5">
	<path id="icon_8_" style="fill:#191919;" d="M117.852,0H10.145C4.899,0,0.642,4.257,0.642,9.503v16.782h126.714V9.503
		C127.355,4.257,123.098,0,117.852,0z M30.101,17.885c-3.136,0-5.702-2.547-5.702-5.702c0-3.136,2.566-5.702,5.702-5.702
		c3.155,0,5.702,2.566,5.702,5.702C35.803,15.338,33.256,17.885,30.101,17.885z M100.424,17.885c-3.136,0-5.702-2.547-5.702-5.702
		c0-3.136,2.566-5.702,5.702-5.702c3.155,0,5.702,2.566,5.702,5.702C106.126,15.338,103.579,17.885,100.424,17.885z M0.645,32.304
		v86.193c0,5.265,4.257,9.503,9.503,9.503h107.708c5.246,0,9.503-4.238,9.503-9.503V32.304H0.645z M64.106,97.115H31.929
		c0.076-3.383,0.798-6.462,2.167-9.237c1.311-3.136,4.428-6.462,9.332-9.959c4.257-3.041,7.013-5.227,8.268-6.557
		c1.92-2.053,2.889-4.295,2.889-6.728c0-1.996-0.551-3.649-1.654-4.961c-1.102-1.33-2.68-1.977-4.733-1.977
		c-2.813,0-4.733,1.045-5.74,3.136c-0.589,1.216-0.931,3.136-1.045,5.778h-8.971c0.152-4.01,0.874-7.241,2.167-9.693
		c2.471-4.694,6.861-7.051,13.152-7.051c4.98,0,8.933,1.387,11.879,4.143c2.946,2.756,4.409,6.405,4.409,10.948
		c0,3.478-1.045,6.557-3.117,9.275c-1.368,1.787-3.611,3.782-6.728,5.987l-3.706,2.623c-2.3,1.654-3.896,2.832-4.752,3.573
		s-1.578,1.578-2.148,2.566h20.508V97.115z M96.872,93.751c-2.737,3.022-6.823,4.523-12.221,4.523
		c-6.652,0-11.271-2.167-13.856-6.519c-1.368-2.3-2.129-5.341-2.281-9.066H77.6c0,1.882,0.304,3.421,0.912,4.657
		c1.121,2.281,3.155,3.402,6.101,3.402c1.825,0,3.402-0.608,4.752-1.863c1.349-1.235,2.015-3.022,2.015-5.36
		c0-3.098-1.254-5.151-3.744-6.196c-1.425-0.57-3.668-0.874-6.728-0.874v-6.614c3.003-0.038,5.094-0.323,6.272-0.874
		c2.053-0.912,3.06-2.737,3.06-5.512c0-1.787-0.513-3.25-1.559-4.371c-1.045-1.121-2.528-1.692-4.409-1.692
		c-2.186,0-3.782,0.703-4.809,2.072c-1.026,1.387-1.52,3.231-1.463,5.55h-8.629c0.076-2.338,0.475-4.542,1.197-6.652
		c0.76-1.825,1.939-3.535,3.554-5.075c1.216-1.102,2.642-1.958,4.314-2.528c1.654-0.589,3.706-0.893,6.12-0.893
		c4.486,0,8.116,1.178,10.872,3.497c2.737,2.319,4.124,5.436,4.124,9.351c0,2.775-0.817,5.094-2.471,6.994
		c-1.026,1.197-2.11,2.015-3.231,2.433c0.836,0,2.053,0.722,3.63,2.186c2.357,2.167,3.535,5.151,3.535,8.933
		C101.016,87.251,99.628,90.748,96.872,93.751z"/>
</g>
<g id="Layer_1">
</g>
</svg>
