<?xml version="1.0" encoding="utf-8"?>
<!-- Generator: Adobe Illustrator 16.0.0, SVG Export Plug-In . SVG Version: 6.00 Build 0)  -->
<!DOCTYPE svg PUBLIC "-//W3C//DTD SVG 1.0//EN" "http://www.w3.org/TR/2001/REC-SVG-20010904/DTD/svg10.dtd">
<svg version="1.0" id="Layer_1" xmlns="http://www.w3.org/2000/svg" xmlns:xlink="http://www.w3.org/1999/xlink" x="0px" y="0px"
	 width="100px" height="100px" viewBox="0 0 100 100" enable-background="new 0 0 100 100" xml:space="preserve">
<circle cx="43.333" cy="83.333" r="6.667"/>
<circle cx="70" cy="83.333" r="6.667"/>
<path d="M84.951,51.865L90,31.667h-6.667v-15H60V10H33.333v21.667h-4.802l-0.991-4.787C26.338,21.058,20.946,16.667,15,16.667h-5
	v6.667h5c2.75,0,5.456,2.204,6.012,4.896l6.961,33.646C29.088,67.259,34.5,71.667,40,71.667h43.333V65H40
	c-2.35,0-5.021-2.175-5.498-4.476l-0.453-2.191h42.618C80.332,58.333,84.063,55.423,84.951,51.865z M76.667,23.333v8.333H60v-8.333
	H76.667z M40,16.667h13.333v15H40V16.667z M29.911,38.333h51.551l-2.979,11.914c-0.146,0.586-1.215,1.42-1.816,1.42H32.669
	L29.911,38.333z"/>
</svg>
