<svg width="24" height="24" viewBox="0 0 24 24" fill="none" xmlns="http://www.w3.org/2000/svg">
<path fill-rule="evenodd" clip-rule="evenodd" d="M2 6C2 4.34315 3.34315 3 5 3H16C18.7614 3 21 5.23858 21 8V15.5076C21 15.7529 21.0301 15.9972 21.0896 16.2352L21.9701 19.7575C22.0568 20.104 21.952 20.4704 21.6952 20.7188C21.4385 20.9671 21.0687 21.0597 20.7253 20.9615L14.2639 19.1154C13.9959 19.0389 13.7185 19 13.4398 19H7C4.23858 19 2 16.7614 2 14V6ZM5 5C4.44772 5 4 5.44772 4 6V14C4 15.6569 5.34315 17 7 17H13.4398C13.9044 17 14.3667 17.0647 14.8134 17.1924L19.6099 18.5628L19.1493 16.7203C19.0501 16.3237 19 15.9164 19 15.5076V8C19 6.34315 17.6569 5 16 5H5Z" fill="black"/>
<path fill-rule="evenodd" clip-rule="evenodd" d="M6 9C6 8.44772 6.44772 8 7 8H16C16.5523 8 17 8.44772 17 9C17 9.55228 16.5523 10 16 10H7C6.44772 10 6 9.55228 6 9Z" fill="black"/>
<path fill-rule="evenodd" clip-rule="evenodd" d="M6 13C6 12.4477 6.44772 12 7 12H14C14.5523 12 15 12.4477 15 13C15 13.5523 14.5523 14 14 14H7C6.44772 14 6 13.5523 6 13Z" fill="black"/>
</svg>
