<?xml version="1.0" encoding="iso-8859-1"?>
<!-- Generator: Adobe Illustrator 20.1.0, SVG Export Plug-In . SVG Version: 6.00 Build 0)  -->
<svg version="1.1" id="Phone-1" xmlns="http://www.w3.org/2000/svg" xmlns:xlink="http://www.w3.org/1999/xlink" x="0px" y="0px"
	 viewBox="0 0 32 32" style="enable-background:new 0 0 32 32;" xml:space="preserve">
<g>
	<path d="M16,0C0.449,0,0,5.387,0,6.001v6C0,13.103,0.897,14,2,14h6c1.103,0,2-0.897,2-1.999V8h12v4.001C22,13.103,22.897,14,24,14
		h6c1.103,0,2-0.897,2-1.999v-6C32,5.387,31.551,0,16,0z M30,12l-6,0.001V7c0-0.552-0.448-1-1-1H9C8.448,6,8,6.448,8,7v5l-6,0.001
		L1.999,6.044C2.002,6.004,2.536,2,16,2c13.458,0,13.997,4.001,14,4.001V12z"/>
	<path d="M27,28c0,1.103-0.897,2-2,2H7c-1.103,0-2-0.897-2-2V16H3v12c0,2.206,1.794,4,4,4h18c2.206,0,4-1.794,4-4V16h-2V28z"/>
	<path d="M23,21c0-3.86-3.14-7-7-7s-7,3.14-7,7s3.14,7,7,7S23,24.86,23,21z M11,21c0-2.757,2.243-5,5-5s5,2.243,5,5s-2.243,5-5,5
		S11,23.757,11,21z"/>
	<circle cx="16" cy="21" r="2"/>
</g>
</svg>
